<?xml version="1.0" encoding="utf-8"?>
<!-- Generator: Adobe Illustrator 28.1.0, SVG Export Plug-In . SVG Version: 6.00 Build 0)  -->
<svg version="1.1" id="Layer_1" xmlns="http://www.w3.org/2000/svg" xmlns:xlink="http://www.w3.org/1999/xlink" x="0px" y="0px"
	 viewBox="0 0 721.39 321.95" style="enable-background:new 0 0 721.39 321.95;" xml:space="preserve">
<style type="text/css">
	.st0{fill:#4338CA;}
	.st1{fill:#581C87;stroke:#2D337F;stroke-miterlimit:10;}
	.st2{fill:#FFFFFF;}
	.st3{fill:#581C87;}
</style>
<path class="st0" d="M-25.53,190.09c-4.22-5.52-10.62-8.69-17.57-8.69h-103.06c-6.95,0-12.58,5.63-12.58,12.58
	s5.63,12.58,12.58,12.58h98.94c-16.33,52.66-67.13,87.75-127.78,87.75c-35.79,0-69.4-13.99-94.62-39.39
	c-25.22-25.4-38.97-59.11-38.72-94.92c0.25-35.49,14.43-68.86,39.94-93.95c25.22-24.81,58.35-38.43,93.41-38.43
	c0.42,0,0.83,0,1.25,0.01c36.23,0.33,69.99,14.94,95.06,41.12c4.81,5.02,12.77,5.19,17.79,0.38c5.02-4.81,5.19-12.77,0.38-17.79
	C-90.32,20.23-130.45,2.87-173.52,2.47c-0.5,0-0.99-0.01-1.49-0.01c-41.7,0-81.09,16.18-111.06,45.66
	c-28.31,27.85-44.88,64.32-47.17,103.42c-26.69-16.59-60.89-16.44-87.45,0.45C-425.34,67.27-495.52,0-581.41,0
	c-88.9,0-160.98,72.07-160.98,160.98s72.07,160.98,160.98,160.98c81.93,0,149.57-61.21,159.67-140.4c1.17-0.54,2.26-1.28,3.23-2.24
	c23.17-23.11,60.82-23.06,83.93,0.12c0.72,0.72,1.51,1.31,2.35,1.8c4.36,34.47,19.85,66.37,44.75,91.44
	c29.98,30.19,69.93,46.82,112.48,46.82c73.67,0,135.25-44.32,153.22-110.29C-19.97,202.54-21.34,195.58-25.53,190.09z
	 M-502.57,126.78c-0.21,0-0.42-0.01-0.63-0.02l-58.37,101.09c2.96,3.93,4.72,8.81,4.72,14.11c0,12.95-10.5,23.45-23.45,23.45
	c-12.95,0-23.45-10.5-23.45-23.45c0-5.3,1.76-10.19,4.72-14.11l-58.45-101.24c-0.91,0.11-1.83,0.17-2.76,0.17
	c-12.95,0-23.45-10.5-23.45-23.45c0-12.95,10.5-23.45,23.45-23.45c12.95,0,23.45,10.5,23.45,23.45c0,7.48-3.51,14.14-8.97,18.44
	l56.81,98.4c2.68-1.06,5.59-1.65,8.64-1.65c3.05,0,5.97,0.59,8.64,1.65l56.16-97.27c-6.34-4.2-10.53-11.39-10.53-19.57
	c0-12.95,10.5-23.45,23.45-23.45c12.95,0,23.45,10.5,23.45,23.45C-479.12,116.28-489.62,126.78-502.57,126.78z"/>
<rect x="-2021.69" y="-86.74" class="st1" width="1080" height="1080"/>
<path class="st2" d="M-1125.53,482.37c-4.22-5.52-10.62-8.69-17.57-8.69h-103.06c-6.95,0-12.58,5.63-12.58,12.58
	c0,6.95,5.63,12.58,12.58,12.58h98.94c-16.33,52.66-67.13,87.75-127.78,87.75c-35.79,0-69.4-13.99-94.62-39.39
	c-25.22-25.4-38.97-59.11-38.72-94.92c0.25-35.49,14.43-68.86,39.94-93.95c25.22-24.81,58.35-38.43,93.41-38.43
	c0.42,0,0.83,0,1.25,0.01c36.23,0.33,69.99,14.94,95.06,41.12c4.81,5.02,12.77,5.19,17.79,0.38s5.19-12.77,0.38-17.79
	c-29.81-31.13-69.94-48.49-113.01-48.88c-0.5,0-0.99-0.01-1.49-0.01c-41.7,0-81.09,16.18-111.06,45.66
	c-28.31,27.85-44.88,64.32-47.17,103.42c-26.69-16.59-60.89-16.44-87.45,0.45c-4.66-84.73-74.83-152-160.72-152
	c-88.9,0-160.98,72.07-160.98,160.98s72.07,160.98,160.98,160.98c81.93,0,149.57-61.21,159.67-140.4c1.17-0.54,2.26-1.28,3.23-2.24
	c23.17-23.11,60.82-23.05,83.93,0.12c0.72,0.72,1.51,1.31,2.35,1.8c4.36,34.47,19.85,66.37,44.75,91.44
	c29.98,30.19,69.93,46.82,112.48,46.82c73.67,0,135.25-44.32,153.22-110.29C-1119.97,494.82-1121.34,487.86-1125.53,482.37z
	 M-1602.57,419.06c-0.21,0-0.42-0.01-0.63-0.02l-58.37,101.09c2.96,3.93,4.72,8.81,4.72,14.11c0,12.95-10.5,23.45-23.45,23.45
	c-12.95,0-23.45-10.5-23.45-23.45c0-5.3,1.76-10.19,4.72-14.11l-58.45-101.24c-0.91,0.11-1.83,0.17-2.76,0.17
	c-12.95,0-23.45-10.5-23.45-23.45c0-12.95,10.5-23.45,23.45-23.45c12.95,0,23.45,10.5,23.45,23.45c0,7.48-3.51,14.14-8.97,18.44
	l56.81,98.4c2.68-1.06,5.59-1.65,8.64-1.65c3.05,0,5.97,0.59,8.64,1.65l56.16-97.27c-6.34-4.2-10.53-11.39-10.53-19.57
	c0-12.95,10.5-23.45,23.45-23.45c12.95,0,23.45,10.5,23.45,23.45C-1579.12,408.56-1589.62,419.06-1602.57,419.06z"/>
<path class="st3" d="M716.85,190.09c-4.22-5.52-10.62-8.69-17.57-8.69H596.22c-6.95,0-12.58,5.63-12.58,12.58
	s5.63,12.58,12.58,12.58h98.94c-16.33,52.66-67.13,87.75-127.78,87.75c-35.79,0-69.4-13.99-94.62-39.39
	c-25.22-25.4-38.97-59.11-38.72-94.92c0.25-35.49,14.43-68.86,39.94-93.95c25.22-24.81,58.35-38.43,93.41-38.43
	c0.42,0,0.83,0,1.25,0.01c36.23,0.33,69.99,14.94,95.06,41.12c4.81,5.02,12.77,5.19,17.79,0.38c5.02-4.81,5.19-12.77,0.38-17.79
	C652.06,20.23,611.93,2.87,568.87,2.47c-0.5,0-0.99-0.01-1.49-0.01c-41.7,0-81.09,16.18-111.06,45.66
	c-28.31,27.85-44.88,64.32-47.17,103.42c-26.69-16.59-60.89-16.44-87.45,0.45C317.04,67.27,246.87,0,160.98,0
	C72.07,0,0,72.07,0,160.98s72.07,160.98,160.98,160.98c81.93,0,149.57-61.21,159.67-140.4c1.17-0.54,2.26-1.28,3.23-2.24
	c23.17-23.11,60.82-23.06,83.93,0.12c0.72,0.72,1.51,1.31,2.35,1.8c4.36,34.47,19.85,66.37,44.75,91.44
	c29.98,30.19,69.93,46.82,112.48,46.82c73.67,0,135.25-44.32,153.22-110.29C722.41,202.54,721.05,195.58,716.85,190.09z
	 M239.81,126.78c-0.21,0-0.42-0.01-0.63-0.02l-58.37,101.09c2.96,3.93,4.72,8.81,4.72,14.11c0,12.95-10.5,23.45-23.45,23.45
	s-23.45-10.5-23.45-23.45c0-5.3,1.76-10.19,4.72-14.11L84.9,126.61c-0.91,0.11-1.83,0.17-2.76,0.17c-12.95,0-23.45-10.5-23.45-23.45
	c0-12.95,10.5-23.45,23.45-23.45c12.95,0,23.45,10.5,23.45,23.45c0,7.48-3.51,14.14-8.97,18.44l56.81,98.4
	c2.68-1.06,5.59-1.65,8.64-1.65s5.97,0.59,8.64,1.65l56.16-97.27c-6.34-4.2-10.53-11.39-10.53-19.57c0-12.95,10.5-23.45,23.45-23.45
	c12.95,0,23.45,10.5,23.45,23.45C263.27,116.28,252.77,126.78,239.81,126.78z"/>
</svg>
