<?xml version="1.0" encoding="utf-8"?>
<!-- Generator: Adobe Illustrator 28.1.0, SVG Export Plug-In . SVG Version: 6.00 Build 0)  -->
<svg version="1.1" xmlns="http://www.w3.org/2000/svg" xmlns:xlink="http://www.w3.org/1999/xlink" x="0px" y="0px"
	 viewBox="0 0 1029.2 1013.8" style="enable-background:new 0 0 1029.2 1013.8;" xml:space="preserve">
<style type="text/css">
	.st0{fill:#581C87;}
	.st1{fill:#FFFFFF;}
</style>
<g id="Layer_2">
</g>
<g id="Layer_1">
	<g>
		<circle class="st0" cx="514.6" cy="506.9" r="492"/>
		<circle class="st1" cx="514.6" cy="506.9" r="362.5"/>
		<path class="st0" d="M973.1,481.3C959.9,239.8,759.8,48,515,48C261.5,48,56.1,253.5,56.1,506.9S261.5,965.8,515,965.8
			c233.6,0,426.4-174.5,455.2-400.2c3.3-1.5-2.8,2.7,0,0 M728.1,416.8c-0.6,0-1.1,0-1.7-0.1l-158,273.7c8,10.6,12.8,23.9,12.8,38.2
			c0,35.1-28.4,63.5-63.5,63.5s-63.5-28.4-63.5-63.5c0-14.4,4.8-27.6,12.8-38.2L308.6,416.3c-2.5,0.3-5,0.5-7.5,0.5
			c-35.1,0-63.5-28.4-63.5-63.5s28.4-63.5,63.5-63.5s63.5,28.4,63.5,63.5c0,20.3-9.5,38.3-24.3,49.9l153.8,266.4
			c7.3-2.9,15.1-4.5,23.4-4.5c8.3,0,16.2,1.6,23.4,4.5L693,406.3c-17.2-11.4-28.5-30.8-28.5-53c0-35.1,28.4-63.5,63.5-63.5
			s63.5,28.4,63.5,63.5C791.6,388.4,763.2,416.8,728.1,416.8z"/>
	</g>
</g>
</svg>
